PathFileType	4	(X/Y/Z)	C:/Users/beibeiliu/ov580/test_trc/capture2\sequence.3_training_dense_left.trc
DataRate	CameraRate	NumFrames	NumMarkers	Units	OrigDataRate	OrigDataStartFrame	OrigNumFrames
120	120	15	19	mm	120	88	350
Frame#	Time	ThumbCMC			ThumbMCP			ThumbIP			ThumbTip			IndexMCP			IndexPIP			IndexTip			MiddleMCP			MiddlePIP			MiddleTip			RingMCP			RingPIP			RingTip			PinkyMCP			PinkyPIP			PinkyTip			BackHand1			BackHand2			BackHand3	
		X0	Y0	Z0	X1	Y1	Z1	X2	Y2	Z2	X3	Y3	Z3	X4	Y4	Z4	X5	Y5	Z5	X6	Y6	Z6	X7	Y7	Z7	X8	Y8	Z8	X9	Y9	Z9	X10	Y10	Z10	X11	Y11	Z11	X12	Y12	Z12	X13	Y13	Z13	X14	Y14	Z14	X15	Y15	Z15	X16	Y16	Z16	X17	Y17	Z17	X18	Y18	Z18	
87	0.725	-91.7632	85.9583	-19.9186	-66.0112	69.4022	-40.8417	-57.8394	62.4849	-65.2373	-60.0889	53.6471	-91.1158	-75.6554	98.1837	-88.3621	-58.6961	73.5274	-86.0132	-72.2891	64.2879	-54.9386	-85.5499	83.1337	-94.8786	-69.665	58.9752	-82.0481	-87.7639	60.8821	-51.3837	-100.355	64.1923	-95.0128	-85.6085	47.2871	-73.3296	-103.925	59.7425	-46.5799	-112.568	55.2311	-89.9037	-101.782	40.7837	-64.9741	-119.035	56.7386	-45.487	-144.408	86.0509	-64.1224	-154.599	81.665	-32.5948	-126.569	104.959	-35.6419	
88	0.733333	-87.458	72.8715	-20.5903	-66.3721	54.013	-38.7703	-51.4114	45.2332	-65.6879	-64.742	37.0421	-90.1898	-73.4508	83.7857	-85.7166	-55.6415	55.2835	-82.5892	-72.0266	47.0688	-57.0198	-84.1245	65.6164	-95.7575	-72.7101	40.4578	-80.3976	-86.3043	45.6663	-50.1631	-101.472	52.3671	-93.4225	-87.5061	33.1915	-74.3597	-103.629	44.5216	-46.805	-112.388	44.6458	-89.5761	-102.777	29.2661	-67.4911	-119.861	43.9333	-44.6625	-139.157	79.8498	-60.9581	-151.379	75.6797	-33.7954	-117.637	94.9706	-37.6487	
89	0.741667	-86.1898	59.1032	-20.3846	-66.0064	39.5091	-37.9295	-54.9831	29.2718	-63.0538	-60.534	21.2663	-84.7555	-69.4938	67.2019	-85.3189	-56.3266	38.618	-81.849	-69.8233	33.9785	-51.54	-82.0528	51.3261	-94.5316	-70.725	26.2726	-78.5177	-88.7653	31.7588	-48.1891	-97.0329	39.795	-91.9834	-89.3125	16.9938	-71.9681	-101.649	33.1384	-45.4311	-116.019	30.9282	-89.6193	-104.831	16.3154	-64.82	-117.164	38.1229	-44.2733	-137.768	67.6863	-62.2039	-150.01	66.6478	-33.1668	-114.322	84.5544	-36.7962	
90	0.75	-83.7448	45.8707	-15.8004	-67.4867	23.7787	-36.5791	-51.3899	11.3007	-61.2533	-63.8594	5.17135	-85.272	-69.5491	52.1296	-84.7835	-56.2677	23.1685	-83.8813	-73.0104	19.4494	-51.6588	-83.2917	39.6077	-90.7339	-72.4853	10.8765	-80.6929	-89.9735	19.2302	-46.4427	-97.9065	27.762	-90.051	-89.7382	3.14928	-69.5322	-106.557	22.2485	-42.1856	-113.488	14.1818	-87.5077	-104.287	3.12778	-64.2024	-115.803	23.0912	-43.1772	-131.407	57.5316	-59.5981	-146.742	54.9045	-34.6059	-111.351	73.3881	-34.1156	
91	0.758333	-82.4771	32.9315	-14.8518	-64.2889	8.47353	-32.6929	-53.2548	-4.45539	-55.4176	-63.3713	-10.7817	-79.7321	-62.379	34.4097	-83.2687	-57.6781	6.69465	-80.1581	-73.1665	4.62321	-50.4835	-80.4298	26.7516	-88.3742	-73.2647	-4.79291	-73.9692	-91.0727	5.31412	-44.4813	-94.9397	9.72233	-89.8505	-93.7432	-11.1937	-68.9539	-107.299	6.63122	-42.6347	-115.993	7.44779	-85.2931	-109.085	-10.3915	-61.0881	-120.571	12.8276	-39.5038	-129.715	47.9603	-60.1969	-143.226	48.3819	-33.661	-108.963	58.7639	-35.515	
92	0.766667	-82.9712	18.2161	-12.3002	-69.463	-5.89295	-29.9293	-55.4558	-19.1867	-55.5479	-68.39	-24.2763	-78.5198	-65.0078	21.0222	-79.3691	-58.5611	-10.3256	-76.5479	-75.879	-10.83	-50.5717	-82.4634	10.5195	-88.9492	-77.9583	-18.9722	-75.6391	-91.1582	-7.44075	-41.9065	-98.622	-1.88027	-88.689	-96.162	-23.5988	-65.8386	-105.069	-6.66525	-40.6945	-116.009	-6.08079	-85.1445	-110.166	-22.2176	-60.6295	-118.597	2.61406	-38.7843	-130.389	36.2333	-58.9732	-141.286	39.1112	-27.3199	-110.317	45.6393	-31.1306	
93	0.775	-84.4812	4.1666	-10.2537	-68.8895	-20.8429	-30.0872	-60.0087	-33.6045	-49.3172	-64.8635	-40.9029	-75.7329	-61.0283	7.52953	-74.9272	-58.3968	-24.9373	-74.4154	-77.4572	-22.9315	-43.8301	-78.0131	-5.21722	-86.1402	-78.1347	-32.9381	-74.582	-95.6026	-23.1052	-42.5455	-98.8079	-15.6451	-86.9759	-98.4697	-35.4885	-67.1086	-105.697	-16.0493	-38.3194	-114.176	-14.5575	-82.2957	-111.477	-32.8371	-58.7455	-119.812	-8.60306	-37.1172	-123.975	29.3854	-55.6199	-136.145	29.3843	-26.6478	-104.911	35.8591	-28.4278	
94	0.783333	-86.8131	-9.7981	-7.66858	-68.8701	-38.1071	-23.7755	-59.1785	-50.9713	-49.5268	-69.3847	-53.4155	-71.8607	-58.5873	-13.5639	-72.5117	-65.3689	-41.8594	-71.9074	-81.3583	-36.7218	-43.9989	-76.8687	-18.833	-83.2554	-81.3131	-47.9347	-70.5056	-99.7421	-35.7363	-39.2123	-99.1058	-24.7387	-84.775	-100.615	-46.9606	-66.5785	-111.901	-28.4306	-36.3018	-115.585	-23.8919	-80.6211	-120.572	-44.7939	-61.5675	-122.942	-23.0309	-33.2425	-119.83	18.0668	-51.1095	-134.386	22.4981	-24.6754	-102.076	21.8656	-26.1471	
95	0.791667	-86.0787	-24.92	-4.92043	-72.9583	-52.6243	-19.2891	-63.862	-63.0713	-46.5182	-69.1917	-69.3378	-69.9505	-58.8107	-31.5455	-70.8397	-71.3557	-58.1152	-67.4042	-87.3548	-43.8559	-40.3652	-80.5923	-31.883	-82.2861	-85.824	-60.0497	-73.1785	-103.755	-48.6634	-39.2234	-101.476	-35.1212	-83.2645	-107.541	-57.2697	-67.3543	-114.676	-42.6882	-37.3908	-120.143	-29.924	-81.649	-123.109	-52.528	-56.9328	-121.966	-33.941	-32.5519	-115.732	11.2686	-51.998	-128.801	12.2284	-20.6655	-91.9075	9.70761	-20.6578	
96	0.8	-85.9734	-38.4996	-2.51025	-76.0538	-63.4727	-20.1609	-64.1493	-79.7872	-44.529	-74.1364	-78.7082	-68.9882	-60.3985	-43.9351	-65.3699	-71.3252	-73.112	-62.3768	-89.8959	-56.3378	-36.4389	-82.3707	-40.9196	-76.687	-93.6273	-71.3937	-69.5188	-106.367	-62.0582	-37.6949	-98.8929	-44.6453	-79.4681	-109.678	-68.1866	-62.1154	-116.811	-51.4795	-34.5428	-117.349	-41.5793	-78.1034	-124.157	-60.7298	-56.7604	-128.156	-43.8293	-31.1758	-114	1.27637	-48.067	-127.329	6.88423	-20.6295	-91.7097	-4.5573	-14.648	
97	0.808333	-90.0395	-49.1271	1.29776	-80.0133	-75.89	-14.747	-72.229	-88.4716	-37.0706	-77.2797	-90.8222	-67.2866	-61.3713	-54.3382	-60.1245	-76.1039	-85.3479	-58.5287	-91.9073	-68.8164	-32.2824	-85.9276	-52.6624	-74.4142	-96.5673	-82.9901	-64.2248	-107.391	-71.6059	-32.2554	-102.12	-54.7239	-76.315	-116.489	-77.2947	-60.4385	-120.893	-60.3395	-30.9872	-120.062	-50.0501	-75.4466	-126.286	-70.5466	-53.4557	-129.01	-51.8384	-26.6026	-110.901	-8.26524	-43.2475	-130.053	-3.98294	-13.9565	-93.3062	-14.5414	-16.0551	
98	0.816667	-90.7479	-59.6438	7.4955	-82.9792	-88.7428	-8.21786	-73.9438	-101.936	-35.1053	-81.9429	-101.179	-59.7591	-67.2152	-66.4394	-57.8431	-81.3032	-95.5343	-55.2582	-97.3957	-81.5453	-30.5556	-87.7387	-64.8039	-70.2422	-98.3493	-92.4291	-62.9918	-111.623	-77.9893	-27.7676	-106.995	-64.8078	-73.2811	-120.82	-85.8658	-58.3757	-122.871	-70.4043	-28.7226	-123.202	-58.7607	-71.3016	-129.912	-78.2989	-50.6321	-131.382	-58.1165	-23.3377	-113.687	-18.5337	-41.4749	-131.489	-11.8962	-11.7416	-95.2947	-25.3246	-7.74499	
99	0.825	-95.2076	-66.7659	5.72733	-87.8592	-95.5926	-8.23235	-79.6539	-111.934	-27.3714	-85.3623	-114.593	-54.1898	-71.6699	-79.2811	-56.3202	-85.3311	-104.996	-54.7519	-102.473	-89.6442	-27.0342	-91.5517	-73.2094	-67.2	-105.04	-101.603	-56.1393	-114.349	-84.6042	-23.6468	-111.74	-74.943	-70.7636	-122.118	-94.4263	-52.4206	-123.256	-76.0552	-24.5346	-125.073	-64.1123	-67.9701	-135.018	-85.6645	-49.5692	-133.596	-66.802	-24.2369	-117.194	-24.1064	-38.7674	-129.684	-18.9445	-11.195	-98.5308	-29.6726	-6.86229	
100	0.833333	-101.989	-71.4406	12.1106	-91.1735	-102.5	-4.11524	-84.2878	-117.684	-23.3667	-86.999	-123.62	-50.7096	-75.1885	-85.2403	-52.3259	-89.6701	-111.185	-52.4374	-107.65	-94.7892	-24.6255	-96.3184	-85.0663	-66.7009	-110.016	-108.661	-54.6499	-116.58	-91.1072	-20.8496	-114.025	-79.5108	-67.3477	-125.596	-101.102	-49.5735	-127.775	-78.5061	-21.2894	-133.293	-73.9226	-67.5492	-138.197	-92.4436	-45.6914	-136.843	-71.1114	-20.8203	-120.467	-31.5608	-38.3616	-133.499	-24.8334	-6.19724	-100.106	-39.1191	-5.9369	
101	0.841667	-100.704	-76.4125	9.60569	-97.5466	-102.718	-2.92305	-89.035	-118.999	-23.4883	-90.0379	-126.88	-47.8632	-78.6885	-90.5922	-51.6606	-92.0723	-116.348	-50.1312	-111.942	-98.6031	-22.9265	-99.3796	-86.2125	-63.0425	-116.435	-112.324	-50.2505	-124.129	-94.0182	-22.1427	-117.512	-86.024	-66.1784	-132.775	-104.708	-44.298	-131.442	-82.4093	-20.7906	-136.485	-78.8131	-66.1393	-141.21	-96.6951	-44.7627	-140.412	-72.365	-19.6987	-123.309	-35.2196	-36.9378	-137.052	-29.3018	-11.1301	-100.564	-41.6474	-8.50068	
